<!--?xml version="1.0" encoding="utf-8"?-->
<!-- Generator: Adobe Illustrator 23.0.6, SVG Export Plug-In . SVG Version: 6.00 Build 0)  -->
<svg version="1.1" id="Layer_1" xmlns="http://www.w3.org/2000/svg" xmlns:xlink="http://www.w3.org/1999/xlink" x="0px" y="0px" viewBox="0 0 792 612" style="" xml:space="preserve">
<style type="text/css">
	.st0{fill:none;stroke:#F1B654;stroke-width:2;stroke-miterlimit:10;}
	.st1{fill:none;}
</style>
<g>
	<path class="st0 SNgErEJQ_0" d="M60.4,291.9c0,3.5-1.7,6.1-5.5,6.1c-1.7,0-3.6-0.4-4.6-1.8c-0.7-1-1.2-2.1-1.6-3.2c-1.2,0.3-2.4,0.4-3.8,0.4
		c-8.3,0-14.1-5.6-14.1-14c0-8.7,5.1-15.1,14.1-15.1c8.7,0,14.1,6.5,14.1,14.9c0,4.9-1.9,8.9-5.2,11.3c0.2,0.2,0.4,0.3,0.5,0.4
		c0.4,0.3,0.9,0.4,1.3,0.4c0.9,0,1.3-0.4,1.3-1.3c0-0.6-0.1-1-0.4-1.6c0.9-0.2,1.9-0.5,2.9-0.7C60,289.2,60.4,290.3,60.4,291.9z
		 M51.5,279c0-4.2-1.9-7.9-6.6-7.9c-4.4,0-6.4,4.1-6.4,7.9c0,2.3,0.6,4.6,2,6.2c0.2-2.5,1.7-4,4.4-4c2.5,0,3.8,1.8,4.7,3.8
		C50.9,283.5,51.5,281.2,51.5,279z M47.2,286.8c-0.6-1.5-1.5-2.8-2.8-2.8c-1.3,0-1.6,0.8-1.6,1.9c0,0.3,0,0.5,0.1,0.8
		c0.6,0.2,1.4,0.4,2.2,0.4S46.6,287.1,47.2,286.8z"></path>
	<path class="st0 SNgErEJQ_1" d="M103.1,271.1h-4.3v12.6c0,7.6-6.9,10.1-13.4,10.1c-7,0-12.5-2.4-12.5-10.2v-12.5h-4.3v-6.3h16.2v6.3h-4.3v11.7
		c0,3.6,2.6,5.1,5.8,5.1c3.7,0,5.7-1.6,5.7-5.4v-11.3h-4.1v-6.3h15.4V271.1z"></path>
	<path class="st0 SNgErEJQ_2" d="M128,293.2h-16.2V287h4.6v-15.8h-4.6v-6.3H128v6.3h-4.6V287h4.6V293.2z"></path>
	<path class="st0 SNgErEJQ_3" d="M170.6,271.1H166v22.1h-4.8l-12.8-14.4v8.1h4.5v6.3h-16V287h4.3v-15.8H137v-6.3h8.4l14,15.4v-9.2h-4.5v-6.3
		h15.7V271.1z"></path>
	<path class="st0 SNgErEJQ_4" d="M211.7,271.1h-4.6v22.1h-4.8l-12.8-14.4v8.1h4.5v6.3h-16V287h4.3v-15.8h-4.3v-6.3h8.4l14,15.4v-9.2H196v-6.3
		h15.7V271.1z"></path>
	<path class="st0 SNgErEJQ_5" d="M235.8,293.2h-16.2V287h4.6v-15.8h-4.6v-6.3h16.2v6.3h-4.6V287h4.6V293.2z"></path>
	<path class="st0 SNgErEJQ_6" d="M274.9,272.9c0,5.5-4.1,8.4-10.5,8.4h-7.5v5.6h4.9v6.3h-16.6V287h4.6v-15.8h-4.6v-6.3h20.4
		C271.8,264.8,274.9,268.1,274.9,272.9z M267.7,274c0-1.9-1.5-3-3.7-3h-7.1v6h6.2C266,277,267.7,276.3,267.7,274z"></path>
	<path class="st0 SNgErEJQ_7" d="M299.8,293.2h-16.2V287h4.6v-15.8h-4.6v-6.3h16.2v6.3h-4.6V287h4.6V293.2z"></path>
	<path class="st0 SNgErEJQ_8" d="M340,293.2h-15.5V287h3.9l-1.6-4.5h-7.7l-1.5,4.5h3.6v6.3h-13V287h3l8.5-22.1h9.3l8.1,22.1h3V293.2z
		 M325.9,279.2l-2.8-7.9l-3,7.9H325.9z"></path>
	<path class="st0 SNgErEJQ_9" d="M376.5,281.7c-0.6,8.3-5.8,12.1-13.8,12.1c-9.6,0-15.2-5-15.2-14.8c0-4,1-7.9,3.9-10.8
		c2.6-2.5,5.7-3.6,9.3-3.6c4,0,6.6,1.4,8.7,4.7c0.1-1.5,0-2.9,0-4.3h6.8v13.3h-7l0-0.8c-0.2-3.8-2.7-6.4-6.5-6.4
		c-5.1,0-7.2,3.4-7.2,8.1c0,5,1.8,8.4,7.3,8.4c3.9,0,6.5-1.7,6.7-5.8H376.5z"></path>
	<path class="st0 SNgErEJQ_10" d="M433.2,271.1h-4.3v12.6c0,7.6-6.9,10.1-13.4,10.1c-7,0-12.5-2.4-12.5-10.2v-12.5h-4.3v-6.3h16.2v6.3h-4.3v11.7
		c0,3.6,2.6,5.1,5.8,5.1c3.7,0,5.7-1.6,5.7-5.4v-11.3h-4.1v-6.3h15.4V271.1z"></path>
	<path class="st0 SNgErEJQ_11" d="M475.1,271.1h-4.6v22.1h-4.8l-12.8-14.4v8.1h4.5v6.3h-16V287h4.3v-15.8h-4.3v-6.3h8.4l14,15.4v-9.2h-4.5v-6.3
		h15.7V271.1z"></path>
	<path class="st0 SNgErEJQ_12" d="M499.2,293.2H483V287h4.6v-15.8H483v-6.3h16.2v6.3h-4.6V287h4.6V293.2z"></path>
	<path class="st0 SNgErEJQ_13" d="M539.2,271.1h-2.9c-3.1,7.1-6.7,15-9.8,22.1h-6.2c-3-7-6.2-14.9-9.1-22.1h-4v-6.3h15.8v6.3H519
		c1.7,3.9,3.6,8.6,5.2,12.5c1.5-3.9,3.5-8.6,5.2-12.5H526v-6.3h13.1V271.1z"></path>
	<path class="st0 SNgErEJQ_14" d="M578,293.2h-30.8V287h4.6v-15.8h-4.6v-6.3H578V277h-7.2v-0.6c0-1.5,0-3.8,0-5.4h-12v6.4h8.3v4.1h-8.3v5.8h11.9
		c0-1.6,0-4.1,0.1-5.7h7.1V293.2z"></path>
	<path class="st0 SNgErEJQ_15" d="M620.4,286.8c0,4.5-2.7,6.9-7.2,6.9c-5.3,0-7.6-2.7-7.3-8.3c0-0.4,0.1-0.9,0.1-1.3c0-2.3-1.5-2.7-3.4-2.7h-4.4
		v5.6h3.6v6.3h-15.1V287h4.3v-15.8h-4.3v-6.3h20.1c4.9,0,9.3,2,9.3,7.5c0,4.1-2.8,6.8-6.9,7c-0.3,0-0.6,0-0.9,0.1
		c0.3,0.1,0.5,0.1,0.8,0.2c3.6,0.5,5,2.2,5,5.9c0,0.7-0.1,1.4-0.1,2.1c0,0.9,0.4,1.4,1.3,1.4c1.8,0,2-2.8,2-4.1h2.9
		C620.4,285.5,620.4,286.2,620.4,286.8z M608.7,274.1c0-2.1-1.7-3.2-3.3-3.2h-7v6.4h6.8C606.9,277.3,608.7,276.3,608.7,274.1z"></path>
	<path class="st0 SNgErEJQ_16" d="M654.4,284.2c0,6.8-4.4,9.6-10.3,9.6c-3.6,0-6.8-0.6-9.6-3.5v3h-6.8v-9.9h5c2.2,3.3,6.8,4.9,10.7,4.9
		c2.1,0,4.4-0.4,4.4-3c0-3.1-3.7-3.2-7.9-3.4c-8.7-0.5-12-3.6-12-9.3c0-6.6,5.4-8.3,11-8.3c3.6,0,6,1.3,8,3.3v-2.8h6.2v8.6h-5.1
		c-2.3-2.7-5.6-3.5-9.1-3.5c-1.6,0-4.3,0.2-4.3,2.4c0,2.8,3.2,3,7.1,3.1C650.1,275.7,654.4,278.1,654.4,284.2z"></path>
	<path class="st0 SNgErEJQ_17" d="M679,293.2h-16.2V287h4.6v-15.8h-4.6v-6.3H679v6.3h-4.6V287h4.6V293.2z"></path>
	<path class="st0 SNgErEJQ_18" d="M720.5,277h-6.8v-6.4h-6.4V287h4.3v6.3h-15.7V287h4.3v-16.4h-6.3v6.4h-6.8v-12.1h33.3V277z"></path>
	<path class="st0 SNgErEJQ_19" d="M758.6,271.1h-3.1l-9.3,12.2v3.6h3.8v6.3h-14.5V287h3.8v-3.4l-9-12.4h-3v-6.3h15v6.3h-3.9l5.2,7.3l5.7-7.3h-4
		v-6.3h13.4V271.1z"></path>
	<path class="st0 SNgErEJQ_20" d="M162.6,343.2h-15.4V337h4.2V322c-2.7,6.8-5.6,14.4-8.3,21.2h-4.5c-2.5-6.8-5.1-14.4-7.7-21.3v15h3.6v6.3H120
		V337h4.3v-15.8H120v-6.3h15.6c1.9,4.9,4.1,11.5,6,16.5c1.9-4.9,5-11.7,7-16.5h14.1v6.3h-4.2V337h4.2V343.2z"></path>
	<path class="st0 SNgErEJQ_21" d="M203.1,343.2h-30.8V337h4.6v-15.8h-4.6v-6.3h30.8V327h-7.2v-0.6c0-1.5,0-3.8,0-5.4h-12v6.4h8.3v4.1h-8.3v5.8
		h11.9c0-1.6,0-4.1,0.1-5.7h7.1V343.2z"></path>
	<path class="st0 SNgErEJQ_22" d="M245.1,321.1h-4.6v22.1h-4.8L223,328.8v8.1h4.5v6.3h-16V337h4.3v-15.8h-4.3v-6.3h8.4l14,15.4v-9.2h-4.5v-6.3
		h15.7V321.1z"></path>
	<path class="st0 SNgErEJQ_23" d="M261.8,320.1c0,5-3.3,7.6-8.1,7.6h-0.3c0-0.7,0.1-1.5,0.1-2.2c2.8-0.4,4-0.6,4.4-3.7H254v-7.3h7.8V320.1z"></path>
	<path class="st0 SNgErEJQ_24" d="M297.7,334.2c0,6.8-4.4,9.6-10.3,9.6c-3.6,0-6.8-0.6-9.6-3.5v3H271v-9.9h5c2.2,3.3,6.8,4.9,10.7,4.9
		c2.1,0,4.4-0.4,4.4-3c0-3.1-3.7-3.2-7.9-3.4c-8.7-0.5-12-3.6-12-9.3c0-6.6,5.4-8.3,11-8.3c3.6,0,6,1.3,8,3.3v-2.8h6.2v8.6h-5.1
		c-2.3-2.7-5.6-3.5-9.1-3.5c-1.6,0-4.3,0.2-4.3,2.4c0,2.8,3.2,3,7.1,3.1C293.4,325.7,297.7,328.1,297.7,334.2z"></path>
	<path class="st0 SNgErEJQ_25" d="M336.7,343.2h-16.2V337h4.6v-15.8h-4.6v-6.3h16.2v6.3h-4.6V337h4.6V343.2z"></path>
	<path class="st0 SNgErEJQ_26" d="M375.1,331.7c-0.6,8.3-5.8,12.1-13.8,12.1c-9.6,0-15.2-5-15.2-14.8c0-4,1-7.9,3.9-10.8
		c2.6-2.5,5.7-3.6,9.3-3.6c4,0,6.6,1.4,8.7,4.7c0.1-1.5,0-2.9,0-4.3h6.8v13.3h-7l0-0.8c-0.2-3.8-2.7-6.4-6.5-6.4
		c-5.1,0-7.2,3.4-7.2,8.1c0,5,1.8,8.4,7.3,8.4c3.9,0,6.5-1.7,6.7-5.8H375.1z"></path>
	<path class="st0 SNgErEJQ_27" d="M414.4,343.2h-30.8V337h4.6v-15.8h-4.6v-6.3h30.8V327h-7.2v-0.6c0-1.5,0-3.8,0-5.4h-12v6.4h8.3v4.1h-8.3v5.8
		h11.9c0-1.6,0-4.1,0.1-5.7h7.1V343.2z"></path>
	<path class="st0 SNgErEJQ_28" d="M472.7,343.2h-15.8V337h4.2v-6h-11.7v6h4.2v6.3h-15.8V337h4.6v-15.8h-4.6v-6.3h15.8v6.3h-4.2v6h11.7v-6h-4.2
		v-6.3h15.8v6.3h-4.6V337h4.6V343.2z"></path>
	<path class="st0 SNgErEJQ_29" d="M510.8,329.2c0,8.3-6.1,14.6-14.5,14.6c-8.4,0-14.5-6.1-14.5-14.4c0-8.7,5.5-15.1,14.5-15.1
		C505,314.3,510.8,320.3,510.8,329.2z M503,329c0-4.6-2.1-8.1-6.8-8.1c-4.4,0-6.5,3.6-6.5,8.1c0,4.8,2.1,8.1,6.7,8.1
		C501,337.2,503,333.7,503,329z"></path>
	<path class="st0 SNgErEJQ_30" d="M548.7,331.7c-0.6,8.3-5.8,12.1-13.8,12.1c-9.6,0-15.2-5-15.2-14.8c0-4,1-7.9,3.9-10.8
		c2.6-2.5,5.7-3.6,9.3-3.6c4,0,6.6,1.4,8.7,4.7c0.1-1.5,0-2.9,0-4.3h6.8v13.3h-7l0-0.8c-0.2-3.8-2.7-6.4-6.5-6.4
		c-5.1,0-7.2,3.4-7.2,8.1c0,5,1.8,8.4,7.3,8.4c3.9,0,6.5-1.7,6.7-5.8H548.7z"></path>
	<path class="st0 SNgErEJQ_31" d="M591.3,343.2h-16V337h3.7l-6.6-6.6l-3.6,2.4v4.2h3.4v6.3h-15.1V337h4.6v-15.8H557v-6.3h15.5v6.3h-3.7v7.3
		l10.6-7.3h-3.6v-6.3h14.8v6.3h-4.6l-8.2,5.7l10,10.2h3.4V343.2z"></path>
	<path class="st0 SNgErEJQ_32" d="M630.8,343.2h-30.8V337h4.6v-15.8h-4.6v-6.3h30.8V327h-7.2v-0.6c0-1.5,0-3.8,0-5.4h-12v6.4h8.3v4.1h-8.3v5.8
		h11.9c0-1.6,0-4.1,0.1-5.7h7.1V343.2z"></path>
	<path class="st0 SNgErEJQ_33" d="M669.6,321.1h-3.1l-9.3,12.2v3.6h3.8v6.3h-14.5V337h3.8v-3.4l-9-12.4h-3v-6.3h15v6.3h-3.9l5.2,7.3l5.7-7.3h-4
		v-6.3h13.4V321.1z"></path>
</g>
<path class="st1 SNgErEJQ_34" d="M695,541L705.2,541L705.2,541L695,541Z"></path>
<style data-made-with="vivus-instant">.SNgErEJQ_0{stroke-dasharray:179 181;stroke-dashoffset:180;animation:SNgErEJQ_draw 2000ms linear 0ms forwards;}.SNgErEJQ_1{stroke-dasharray:178 180;stroke-dashoffset:179;animation:SNgErEJQ_draw 2000ms linear 29ms forwards;}.SNgErEJQ_2{stroke-dasharray:108 110;stroke-dashoffset:109;animation:SNgErEJQ_draw 2000ms linear 58ms forwards;}.SNgErEJQ_3{stroke-dasharray:194 196;stroke-dashoffset:195;animation:SNgErEJQ_draw 2000ms linear 88ms forwards;}.SNgErEJQ_4{stroke-dasharray:194 196;stroke-dashoffset:195;animation:SNgErEJQ_draw 2000ms linear 117ms forwards;}.SNgErEJQ_5{stroke-dasharray:108 110;stroke-dashoffset:109;animation:SNgErEJQ_draw 2000ms linear 147ms forwards;}.SNgErEJQ_6{stroke-dasharray:159 161;stroke-dashoffset:160;animation:SNgErEJQ_draw 2000ms linear 176ms forwards;}.SNgErEJQ_7{stroke-dasharray:108 110;stroke-dashoffset:109;animation:SNgErEJQ_draw 2000ms linear 205ms forwards;}.SNgErEJQ_8{stroke-dasharray:164 166;stroke-dashoffset:165;animation:SNgErEJQ_draw 2000ms linear 235ms forwards;}.SNgErEJQ_9{stroke-dasharray:162 164;stroke-dashoffset:163;animation:SNgErEJQ_draw 2000ms linear 264ms forwards;}.SNgErEJQ_10{stroke-dasharray:178 180;stroke-dashoffset:179;animation:SNgErEJQ_draw 2000ms linear 294ms forwards;}.SNgErEJQ_11{stroke-dasharray:194 196;stroke-dashoffset:195;animation:SNgErEJQ_draw 2000ms linear 323ms forwards;}.SNgErEJQ_12{stroke-dasharray:108 110;stroke-dashoffset:109;animation:SNgErEJQ_draw 2000ms linear 352ms forwards;}.SNgErEJQ_13{stroke-dasharray:150 152;stroke-dashoffset:151;animation:SNgErEJQ_draw 2000ms linear 382ms forwards;}.SNgErEJQ_14{stroke-dasharray:206 208;stroke-dashoffset:207;animation:SNgErEJQ_draw 2000ms linear 411ms forwards;}.SNgErEJQ_15{stroke-dasharray:203 205;stroke-dashoffset:204;animation:SNgErEJQ_draw 2000ms linear 441ms forwards;}.SNgErEJQ_16{stroke-dasharray:186 188;stroke-dashoffset:187;animation:SNgErEJQ_draw 2000ms linear 470ms forwards;}.SNgErEJQ_17{stroke-dasharray:108 110;stroke-dashoffset:109;animation:SNgErEJQ_draw 2000ms linear 500ms forwards;}.SNgErEJQ_18{stroke-dasharray:167 169;stroke-dashoffset:168;animation:SNgErEJQ_draw 2000ms linear 529ms forwards;}.SNgErEJQ_19{stroke-dasharray:159 161;stroke-dashoffset:160;animation:SNgErEJQ_draw 2000ms linear 558ms forwards;}.SNgErEJQ_20{stroke-dasharray:269 271;stroke-dashoffset:270;animation:SNgErEJQ_draw 2000ms linear 588ms forwards;}.SNgErEJQ_21{stroke-dasharray:206 208;stroke-dashoffset:207;animation:SNgErEJQ_draw 2000ms linear 617ms forwards;}.SNgErEJQ_22{stroke-dasharray:194 196;stroke-dashoffset:195;animation:SNgErEJQ_draw 2000ms linear 647ms forwards;}.SNgErEJQ_23{stroke-dasharray:47 49;stroke-dashoffset:48;animation:SNgErEJQ_draw 2000ms linear 676ms forwards;}.SNgErEJQ_24{stroke-dasharray:186 188;stroke-dashoffset:187;animation:SNgErEJQ_draw 2000ms linear 705ms forwards;}.SNgErEJQ_25{stroke-dasharray:108 110;stroke-dashoffset:109;animation:SNgErEJQ_draw 2000ms linear 735ms forwards;}.SNgErEJQ_26{stroke-dasharray:162 164;stroke-dashoffset:163;animation:SNgErEJQ_draw 2000ms linear 764ms forwards;}.SNgErEJQ_27{stroke-dasharray:206 208;stroke-dashoffset:207;animation:SNgErEJQ_draw 2000ms linear 794ms forwards;}.SNgErEJQ_28{stroke-dasharray:228 230;stroke-dashoffset:229;animation:SNgErEJQ_draw 2000ms linear 823ms forwards;}.SNgErEJQ_29{stroke-dasharray:141 143;stroke-dashoffset:142;animation:SNgErEJQ_draw 2000ms linear 852ms forwards;}.SNgErEJQ_30{stroke-dasharray:162 164;stroke-dashoffset:163;animation:SNgErEJQ_draw 2000ms linear 882ms forwards;}.SNgErEJQ_31{stroke-dasharray:222 224;stroke-dashoffset:223;animation:SNgErEJQ_draw 2000ms linear 911ms forwards;}.SNgErEJQ_32{stroke-dasharray:206 208;stroke-dashoffset:207;animation:SNgErEJQ_draw 2000ms linear 941ms forwards;}.SNgErEJQ_33{stroke-dasharray:159 161;stroke-dashoffset:160;animation:SNgErEJQ_draw 2000ms linear 970ms forwards;}.SNgErEJQ_34{stroke-dasharray:21 23;stroke-dashoffset:22;animation:SNgErEJQ_draw 2000ms linear 1000ms forwards;}@keyframes SNgErEJQ_draw{100%{stroke-dashoffset:0;}}@keyframes SNgErEJQ_fade{0%{stroke-opacity:1;}94.44444444444444%{stroke-opacity:1;}100%{stroke-opacity:0;}}</style></svg>
