<svg id="Layer_1" data-name="Layer 1" xmlns="http://www.w3.org/2000/svg" viewBox="0 0 729.74 277.69" style=""><defs><style>.cls-1,.cls-2{fill:none;stroke-miterlimit:10;stroke-width:2px;}.cls-1{stroke:#f1b654;}.cls-2{stroke:#598cc2;}</style></defs><title>Quintro</title><path class="cls-1 Snosfgvn_0" d="M55.69,291.86c0,3.49-1.7,6.12-5.47,6.12-1.7,0-3.56-.37-4.62-1.82A12.06,12.06,0,0,1,44,292.91a15.62,15.62,0,0,1-3.76.45c-8.35,0-14.14-5.63-14.14-14,0-8.71,5.1-15.07,14.14-15.07,8.67,0,14.13,6.48,14.13,14.91a13.78,13.78,0,0,1-5.22,11.34,2.82,2.82,0,0,0,.53.41,2.23,2.23,0,0,0,1.29.4c.89,0,1.3-.4,1.3-1.29a3.11,3.11,0,0,0-.41-1.58c.89-.16,1.91-.53,2.92-.69A11.72,11.72,0,0,1,55.69,291.86ZM46.74,279c0-4.21-1.91-7.94-6.6-7.94-4.42,0-6.37,4.05-6.37,7.94a9.47,9.47,0,0,0,2,6.2,4,4,0,0,1,4.42-4c2.47,0,3.8,1.82,4.74,3.85A9.91,9.91,0,0,0,46.74,279Zm-4.26,7.82c-.6-1.5-1.45-2.76-2.83-2.76S38,284.89,38,286a5.69,5.69,0,0,0,.08.81,6.29,6.29,0,0,0,2.19.36A6.19,6.19,0,0,0,42.48,286.84Z" transform="translate(-25.08 -263.27)"></path><path class="cls-1 Snosfgvn_1" d="M98.35,271.12H94v12.6c0,7.57-6.93,10.13-13.37,10.13-7,0-12.52-2.35-12.52-10.25V271.12H63.8v-6.28H80v6.28H75.63v11.67c0,3.6,2.55,5.06,5.83,5.06,3.73,0,5.67-1.58,5.67-5.39V271.12H83v-6.28H98.35Z" transform="translate(-25.08 -263.27)"></path><path class="cls-1 Snosfgvn_2" d="M123.23,293.24H107V287h4.62V271.12H107v-6.28h16.24v6.28h-4.62V287h4.62Z" transform="translate(-25.08 -263.27)"></path><path class="cls-1 Snosfgvn_3" d="M165.85,271.12h-4.57v22.12H156.5l-12.81-14.42V287h4.54v6.28h-16V287h4.33V271.12h-4.33v-6.28h8.39l14,15.43v-9.15h-4.45v-6.28h15.71Z" transform="translate(-25.08 -263.27)"></path><path class="cls-1 Snosfgvn_4" d="M207,271.12H202.4v22.12h-4.78l-12.8-14.42V287h4.53v6.28h-16V287h4.34V271.12h-4.34v-6.28h8.39l14,15.43v-9.15h-4.46v-6.28H207Z" transform="translate(-25.08 -263.27)"></path><path class="cls-1 Snosfgvn_5" d="M231.09,293.24H214.84V287h4.62V271.12h-4.62v-6.28h16.25v6.28h-4.62V287h4.62Z" transform="translate(-25.08 -263.27)"></path><path class="cls-1 Snosfgvn_6" d="M270.18,272.94c0,5.47-4.05,8.39-10.53,8.39h-7.54V287h4.95v6.28H240.45V287H245V271.12h-4.57v-6.28h20.37C267,264.84,270.18,268.08,270.18,272.94Zm-7.25,1c0-1.95-1.54-3-3.73-3h-7.09V277h6.24C261.23,277,262.93,276.26,262.93,274Z" transform="translate(-25.08 -263.27)"></path><path class="cls-1 Snosfgvn_7" d="M295.1,293.24H278.86V287h4.61V271.12h-4.61v-6.28H295.1v6.28h-4.62V287h4.62Z" transform="translate(-25.08 -263.27)"></path><path class="cls-1 Snosfgvn_8" d="M335.29,293.24H319.77V287h3.93l-1.62-4.46h-7.73L312.81,287h3.64v6.28h-13V287h3l8.54-22.12h9.28L332.33,287h3Zm-14.14-14-2.83-7.9-3,7.9Z" transform="translate(-25.08 -263.27)"></path><path class="cls-1 Snosfgvn_9" d="M371.76,281.69c-.61,8.27-5.76,12.08-13.82,12.08-9.64,0-15.23-5-15.23-14.83,0-4,1-7.94,3.89-10.82a12.73,12.73,0,0,1,9.28-3.64c4,0,6.56,1.37,8.66,4.69.09-1.45,0-2.87,0-4.33h6.8v13.33h-7l0-.81c-.2-3.81-2.67-6.4-6.52-6.4-5.1,0-7.17,3.4-7.17,8.14,0,5,1.82,8.43,7.29,8.43,3.93,0,6.52-1.75,6.73-5.84Z" transform="translate(-25.08 -263.27)"></path><path class="cls-1 Snosfgvn_10" d="M428.48,271.12h-4.34v12.6c0,7.57-6.93,10.13-13.37,10.13-7,0-12.51-2.35-12.51-10.25V271.12h-4.34v-6.28h16.16v6.28h-4.33v11.67c0,3.6,2.55,5.06,5.83,5.06,3.73,0,5.68-1.58,5.68-5.39V271.12h-4.14v-6.28h15.36Z" transform="translate(-25.08 -263.27)"></path><path class="cls-1 Snosfgvn_11" d="M470.37,271.12h-4.58v22.12H461l-12.8-14.42V287h4.54v6.28h-16V287h4.33V271.12h-4.33v-6.28h8.38l14,15.43v-9.15h-4.46v-6.28h15.72Z" transform="translate(-25.08 -263.27)"></path><path class="cls-1 Snosfgvn_12" d="M494.48,293.24H478.23V287h4.62V271.12h-4.62v-6.28h16.25v6.28h-4.62V287h4.62Z" transform="translate(-25.08 -263.27)"></path><path class="cls-1 Snosfgvn_13" d="M534.43,271.12h-2.88c-3.12,7.13-6.68,15-9.76,22.12h-6.24c-3-7.05-6.24-14.95-9.08-22.12h-4v-6.28h15.84v6.28h-4.05c1.66,3.89,3.61,8.59,5.19,12.48,1.54-3.93,3.52-8.59,5.22-12.48h-3.4v-6.28h13.13Z" transform="translate(-25.08 -263.27)"></path><path class="cls-1 Snosfgvn_14" d="M573.28,293.24H542.45V287H547V271.12h-4.58v-6.28h30.83V277h-7.17v-.6c0-1.54,0-3.85,0-5.43h-12v6.36h8.3v4.13h-8.3v5.75H566c0-1.58,0-4.13.12-5.71h7.13Z" transform="translate(-25.08 -263.27)"></path><path class="cls-1 Snosfgvn_15" d="M615.7,286.8c0,4.53-2.71,6.88-7.17,6.88-5.35,0-7.58-2.71-7.25-8.3,0-.45.08-.89.08-1.34,0-2.27-1.46-2.71-3.36-2.71h-4.42V287h3.61v6.28H582.08V287h4.33V271.12h-4.33v-6.28h20c4.94,0,9.32,2,9.32,7.54,0,4.13-2.84,6.8-6.89,7a5.43,5.43,0,0,0-.93.09,5.53,5.53,0,0,0,.81.16c3.6.48,5,2.23,5,5.87,0,.69-.08,1.42-.08,2.11,0,.85.37,1.38,1.26,1.38,1.82,0,2-2.8,2-4.1h2.92A14.68,14.68,0,0,1,615.7,286.8ZM604,274.08a3.16,3.16,0,0,0-3.32-3.16h-7v6.4h6.81A3.27,3.27,0,0,0,604,274.08Z" transform="translate(-25.08 -263.27)"></path><path class="cls-1 Snosfgvn_16" d="M640,293.24H623.77V287h4.62V271.12h-4.62v-6.28H640v6.28h-4.62V287H640Z" transform="translate(-25.08 -263.27)"></path><path class="cls-1 Snosfgvn_17" d="M675.3,284.2c0,6.85-4.42,9.57-10.29,9.57-3.56,0-6.85-.65-9.6-3.53v3h-6.77v-9.93h5c2.18,3.33,6.84,4.95,10.65,4.95,2.07,0,4.38-.41,4.38-3,0-3.12-3.73-3.16-7.94-3.41-8.71-.52-12-3.64-12-9.31,0-6.61,5.39-8.27,11-8.27a10.29,10.29,0,0,1,8,3.32v-2.75h6.16v8.59h-5.14c-2.35-2.68-5.59-3.53-9.08-3.53-1.62,0-4.33.25-4.33,2.43,0,2.8,3.24,3,7.09,3.08C671,275.7,675.3,278.13,675.3,284.2Z" transform="translate(-25.08 -263.27)"></path><path class="cls-1 Snosfgvn_18" d="M715.73,277h-6.8v-6.44h-6.36V287h4.33v6.28H691.18V287h4.34V270.51H689.2V277h-6.81V264.84h33.34Z" transform="translate(-25.08 -263.27)"></path><path class="cls-1 Snosfgvn_19" d="M753.82,271.12h-3.08l-9.28,12.19V287h3.77v6.28H730.69V287h3.77v-3.44l-9-12.4h-3v-6.28h15v6.28h-3.93l5.23,7.29,5.67-7.29h-4v-6.28h13.41Z" transform="translate(-25.08 -263.27)"></path><path class="cls-2 Snosfgvn_20" d="M157.87,347.24H142.44V341h4.17V326c-2.71,6.81-5.59,14.38-8.27,21.23h-4.53c-2.51-6.85-5.11-14.42-7.66-21.31v15h3.65v6.28H115.25V341h4.34V325.12h-4.34v-6.28h15.6c1.86,4.94,4.13,11.51,6,16.49,1.94-4.94,5-11.71,7-16.49h14.1v6.28h-4.21V341h4.21Z" transform="translate(-25.08 -263.27)"></path><path class="cls-2 Snosfgvn_21" d="M198.35,347.24H167.52V341h4.58V325.12h-4.58v-6.28h30.83V331h-7.17v-.6c0-1.54,0-3.85,0-5.43H179.19v6.36h8.3v4.13h-8.3v5.75H191.1c0-1.58,0-4.13.12-5.71h7.13Z" transform="translate(-25.08 -263.27)"></path><path class="cls-2 Snosfgvn_22" d="M240.4,325.12h-4.57v22.12h-4.78l-12.81-14.42V341h4.54v6.28h-16V341h4.33V325.12h-4.33v-6.28h8.39l14,15.44v-9.16h-4.45v-6.28H240.4Z" transform="translate(-25.08 -263.27)"></path><path class="cls-2 Snosfgvn_23" d="M257.06,324.07c0,5-3.28,7.61-8.15,7.61h-.28c0-.73.12-1.5.12-2.23,2.76-.4,4-.56,4.38-3.72h-3.89v-7.25h7.82Z" transform="translate(-25.08 -263.27)"></path><path class="cls-2 Snosfgvn_24" d="M292.91,338.21c0,6.84-4.41,9.56-10.29,9.56-3.56,0-6.84-.65-9.6-3.53v3h-6.76v-9.93h5c2.19,3.33,6.85,4.95,10.65,4.95,2.07,0,4.38-.41,4.38-3,0-3.12-3.73-3.16-7.94-3.4-8.71-.53-12-3.65-12-9.32,0-6.61,5.39-8.27,11-8.27a10.32,10.32,0,0,1,8,3.32v-2.75h6.16v8.59h-5.15c-2.35-2.68-5.59-3.53-9.07-3.53-1.63,0-4.34.25-4.34,2.43,0,2.8,3.24,3,7.09,3.08C288.62,329.7,292.91,332.13,292.91,338.21Z" transform="translate(-25.08 -263.27)"></path><path class="cls-2 Snosfgvn_25" d="M332,347.24H315.73V341h4.61V325.12h-4.61v-6.28H332v6.28h-4.62V341H332Z" transform="translate(-25.08 -263.27)"></path><path class="cls-2 Snosfgvn_26" d="M370.38,335.69c-.61,8.27-5.75,12.08-13.82,12.08-9.64,0-15.23-5-15.23-14.83,0-4,1-7.94,3.89-10.82a12.73,12.73,0,0,1,9.28-3.64c4,0,6.56,1.37,8.67,4.69.08-1.45,0-2.87,0-4.33H370v13.33h-7l0-.81c-.21-3.81-2.68-6.4-6.53-6.4-5.1,0-7.17,3.4-7.17,8.14,0,5,1.83,8.43,7.29,8.43,3.93,0,6.53-1.74,6.73-5.84Z" transform="translate(-25.08 -263.27)"></path><path class="cls-2 Snosfgvn_27" d="M409.64,347.24H378.81V341h4.58V325.12h-4.58v-6.28h30.83V331h-7.17v-.6c0-1.54,0-3.85,0-5.43H390.48v6.36h8.3v4.13h-8.3v5.75h11.91c0-1.58,0-4.13.12-5.71h7.13Z" transform="translate(-25.08 -263.27)"></path><path class="cls-2 Snosfgvn_28" d="M468,347.24H452.14V341h4.17v-6H444.56v6h4.18v6.28H432.9V341h4.57V325.12H432.9v-6.28h15.84v6.28h-4.18v6h11.75v-6h-4.17v-6.28H468v6.28H463.4V341H468Z" transform="translate(-25.08 -263.27)"></path><path class="cls-2 Snosfgvn_29" d="M506.11,333.18a14.15,14.15,0,0,1-14.55,14.59c-8.42,0-14.54-6.08-14.54-14.43,0-8.71,5.51-15.07,14.54-15.07C500.23,318.27,506.11,324.35,506.11,333.18Zm-7.86-.16c0-4.58-2.07-8.14-6.77-8.14-4.41,0-6.52,3.6-6.52,8.14,0,4.82,2.07,8.14,6.68,8.14S498.25,337.68,498.25,333Z" transform="translate(-25.08 -263.27)"></path><path class="cls-2 Snosfgvn_30" d="M544,335.69c-.61,8.27-5.75,12.08-13.82,12.08-9.64,0-15.23-5-15.23-14.83,0-4,1-7.94,3.89-10.82a12.73,12.73,0,0,1,9.28-3.64c4,0,6.56,1.37,8.67,4.69.08-1.45,0-2.87,0-4.33h6.8v13.33h-7l0-.81c-.21-3.81-2.68-6.4-6.53-6.4-5.1,0-7.17,3.4-7.17,8.14,0,5,1.83,8.43,7.29,8.43,3.93,0,6.53-1.74,6.73-5.84Z" transform="translate(-25.08 -263.27)"></path><path class="cls-2 Snosfgvn_31" d="M586.53,347.24h-16V341h3.72l-6.56-6.6-3.64,2.39V341h3.4v6.28H552.38V341H557V325.12h-4.74v-6.28h15.51v6.28h-3.68v7.25l10.61-7.25h-3.57v-6.28h14.83v6.28h-4.58l-8.22,5.67,10,10.17h3.36Z" transform="translate(-25.08 -263.27)"></path><path class="cls-2 Snosfgvn_32" d="M626,347.24H595.2V341h4.58V325.12H595.2v-6.28H626V331h-7.17v-.6c0-1.54,0-3.85,0-5.43h-12v6.36h8.31v4.13h-8.31v5.75h11.91c0-1.58,0-4.13.12-5.71H626Z" transform="translate(-25.08 -263.27)"></path><path class="cls-2 Snosfgvn_33" d="M664.89,325.12h-3.08l-9.28,12.19V341h3.77v6.28H641.76V341h3.76v-3.44l-9-12.4h-3v-6.28h15v6.28h-3.93l5.23,7.29,5.67-7.29h-4v-6.28h13.41Z" transform="translate(-25.08 -263.27)"></path><text x="-25.08" y="-263.27"></text><style data-made-with="vivus-instant">.Snosfgvn_0{stroke-dasharray:179 181;stroke-dashoffset:180;animation:Snosfgvn_draw 2000ms linear 0ms forwards;}.Snosfgvn_1{stroke-dasharray:178 180;stroke-dashoffset:179;animation:Snosfgvn_draw 2000ms linear 30ms forwards;}.Snosfgvn_2{stroke-dasharray:108 110;stroke-dashoffset:109;animation:Snosfgvn_draw 2000ms linear 60ms forwards;}.Snosfgvn_3{stroke-dasharray:194 196;stroke-dashoffset:195;animation:Snosfgvn_draw 2000ms linear 90ms forwards;}.Snosfgvn_4{stroke-dasharray:195 197;stroke-dashoffset:196;animation:Snosfgvn_draw 2000ms linear 121ms forwards;}.Snosfgvn_5{stroke-dasharray:108 110;stroke-dashoffset:109;animation:Snosfgvn_draw 2000ms linear 151ms forwards;}.Snosfgvn_6{stroke-dasharray:160 162;stroke-dashoffset:161;animation:Snosfgvn_draw 2000ms linear 181ms forwards;}.Snosfgvn_7{stroke-dasharray:108 110;stroke-dashoffset:109;animation:Snosfgvn_draw 2000ms linear 212ms forwards;}.Snosfgvn_8{stroke-dasharray:164 166;stroke-dashoffset:165;animation:Snosfgvn_draw 2000ms linear 242ms forwards;}.Snosfgvn_9{stroke-dasharray:163 165;stroke-dashoffset:164;animation:Snosfgvn_draw 2000ms linear 272ms forwards;}.Snosfgvn_10{stroke-dasharray:178 180;stroke-dashoffset:179;animation:Snosfgvn_draw 2000ms linear 303ms forwards;}.Snosfgvn_11{stroke-dasharray:194 196;stroke-dashoffset:195;animation:Snosfgvn_draw 2000ms linear 333ms forwards;}.Snosfgvn_12{stroke-dasharray:108 110;stroke-dashoffset:109;animation:Snosfgvn_draw 2000ms linear 363ms forwards;}.Snosfgvn_13{stroke-dasharray:150 152;stroke-dashoffset:151;animation:Snosfgvn_draw 2000ms linear 393ms forwards;}.Snosfgvn_14{stroke-dasharray:206 208;stroke-dashoffset:207;animation:Snosfgvn_draw 2000ms linear 424ms forwards;}.Snosfgvn_15{stroke-dasharray:203 205;stroke-dashoffset:204;animation:Snosfgvn_draw 2000ms linear 454ms forwards;}.Snosfgvn_16{stroke-dasharray:108 110;stroke-dashoffset:109;animation:Snosfgvn_draw 2000ms linear 484ms forwards;}.Snosfgvn_17{stroke-dasharray:186 188;stroke-dashoffset:187;animation:Snosfgvn_draw 2000ms linear 515ms forwards;}.Snosfgvn_18{stroke-dasharray:167 169;stroke-dashoffset:168;animation:Snosfgvn_draw 2000ms linear 545ms forwards;}.Snosfgvn_19{stroke-dasharray:159 161;stroke-dashoffset:160;animation:Snosfgvn_draw 2000ms linear 575ms forwards;}.Snosfgvn_20{stroke-dasharray:270 272;stroke-dashoffset:271;animation:Snosfgvn_draw 2000ms linear 606ms forwards;}.Snosfgvn_21{stroke-dasharray:206 208;stroke-dashoffset:207;animation:Snosfgvn_draw 2000ms linear 636ms forwards;}.Snosfgvn_22{stroke-dasharray:194 196;stroke-dashoffset:195;animation:Snosfgvn_draw 2000ms linear 666ms forwards;}.Snosfgvn_23{stroke-dasharray:47 49;stroke-dashoffset:48;animation:Snosfgvn_draw 2000ms linear 696ms forwards;}.Snosfgvn_24{stroke-dasharray:186 188;stroke-dashoffset:187;animation:Snosfgvn_draw 2000ms linear 727ms forwards;}.Snosfgvn_25{stroke-dasharray:108 110;stroke-dashoffset:109;animation:Snosfgvn_draw 2000ms linear 757ms forwards;}.Snosfgvn_26{stroke-dasharray:163 165;stroke-dashoffset:164;animation:Snosfgvn_draw 2000ms linear 787ms forwards;}.Snosfgvn_27{stroke-dasharray:206 208;stroke-dashoffset:207;animation:Snosfgvn_draw 2000ms linear 818ms forwards;}.Snosfgvn_28{stroke-dasharray:228 230;stroke-dashoffset:229;animation:Snosfgvn_draw 2000ms linear 848ms forwards;}.Snosfgvn_29{stroke-dasharray:141 143;stroke-dashoffset:142;animation:Snosfgvn_draw 2000ms linear 878ms forwards;}.Snosfgvn_30{stroke-dasharray:163 165;stroke-dashoffset:164;animation:Snosfgvn_draw 2000ms linear 909ms forwards;}.Snosfgvn_31{stroke-dasharray:222 224;stroke-dashoffset:223;animation:Snosfgvn_draw 2000ms linear 939ms forwards;}.Snosfgvn_32{stroke-dasharray:206 208;stroke-dashoffset:207;animation:Snosfgvn_draw 2000ms linear 969ms forwards;}.Snosfgvn_33{stroke-dasharray:159 161;stroke-dashoffset:160;animation:Snosfgvn_draw 2000ms linear 1000ms forwards;}@keyframes Snosfgvn_draw{100%{stroke-dashoffset:0;}}@keyframes Snosfgvn_fade{0%{stroke-opacity:1;}94.44444444444444%{stroke-opacity:1;}100%{stroke-opacity:0;}}</style></svg>