<svg id="Layer_1" data-name="Layer 1" xmlns="http://www.w3.org/2000/svg" viewBox="0 0 729.74 277.69" style=""><defs><style>.cls-1,.cls-2{fill:none;stroke-miterlimit:10;stroke-width:2px;}.cls-1{stroke:#f1b654;}.cls-2{stroke:#f0b653;}</style></defs><title>qulogo</title><path class="cls-1 OjTPHuAO_0" d="M60.43,291.86c0,3.49-1.7,6.12-5.47,6.12-1.7,0-3.56-.37-4.62-1.82a11.77,11.77,0,0,1-1.62-3.25,15.64,15.64,0,0,1-3.77.45c-8.34,0-14.13-5.63-14.13-14,0-8.71,5.1-15.07,14.13-15.07,8.67,0,14.14,6.48,14.14,14.91a13.78,13.78,0,0,1-5.22,11.34,3.16,3.16,0,0,0,.52.41,2.26,2.26,0,0,0,1.3.4c.89,0,1.3-.4,1.3-1.29a3.21,3.21,0,0,0-.41-1.58c.89-.16,1.91-.53,2.92-.69A12,12,0,0,1,60.43,291.86Zm-9-12.84c0-4.21-1.91-7.94-6.61-7.94-4.41,0-6.36,4.05-6.36,7.94a9.47,9.47,0,0,0,2,6.2,4,4,0,0,1,4.41-4c2.47,0,3.81,1.82,4.74,3.85A9.85,9.85,0,0,0,51.48,279Zm-4.26,7.82c-.6-1.5-1.46-2.76-2.83-2.76s-1.62.81-1.62,1.95a5.69,5.69,0,0,0,.08.81,6.81,6.81,0,0,0,4.37,0Z" transform="translate(-29.82 -263.27)"></path><path class="cls-1 OjTPHuAO_1" d="M103.09,271.12H98.76v12.6c0,7.57-6.93,10.13-13.37,10.13-7,0-12.52-2.35-12.52-10.25V271.12H68.54v-6.28H84.7v6.28H80.37v11.67c0,3.6,2.55,5.06,5.83,5.06,3.73,0,5.67-1.58,5.67-5.39V271.12H87.74v-6.28h15.35Z" transform="translate(-29.82 -263.27)"></path><path class="cls-1 OjTPHuAO_2" d="M128,293.24H111.73V287h4.61V271.12h-4.61v-6.28H128v6.28h-4.62V287H128Z" transform="translate(-29.82 -263.27)"></path><path class="cls-1 OjTPHuAO_3" d="M170.59,271.12H166v22.12h-4.78l-12.8-14.42V287H153v6.28H137V287h4.33V271.12H137v-6.28h8.38l14,15.43v-9.15h-4.46v-6.28h15.72Z" transform="translate(-29.82 -263.27)"></path><path class="cls-1 OjTPHuAO_4" d="M211.72,271.12h-4.58v22.12h-4.78l-12.8-14.42V287h4.53v6.28h-16V287h4.34V271.12h-4.34v-6.28h8.39l14,15.43v-9.15H196v-6.28h15.72Z" transform="translate(-29.82 -263.27)"></path><path class="cls-1 OjTPHuAO_5" d="M235.82,293.24H219.58V287h4.62V271.12h-4.62v-6.28h16.24v6.28h-4.61V287h4.61Z" transform="translate(-29.82 -263.27)"></path><path class="cls-1 OjTPHuAO_6" d="M274.92,272.94c0,5.47-4.05,8.39-10.53,8.39h-7.54V287h4.94v6.28H245.18V287h4.58V271.12h-4.58v-6.28h20.38C271.76,264.84,274.92,268.08,274.92,272.94Zm-7.25,1c0-1.95-1.54-3-3.73-3h-7.09V277h6.24C266,277,267.67,276.26,267.67,274Z" transform="translate(-29.82 -263.27)"></path><path class="cls-1 OjTPHuAO_7" d="M299.84,293.24H283.59V287h4.62V271.12h-4.62v-6.28h16.25v6.28h-4.62V287h4.62Z" transform="translate(-29.82 -263.27)"></path><path class="cls-1 OjTPHuAO_8" d="M340,293.24H324.51V287h3.93l-1.62-4.46h-7.74L317.54,287h3.65v6.28h-13V287h3l8.55-22.12h9.28L337.07,287h3Zm-14.14-14-2.84-7.9-2.95,7.9Z" transform="translate(-29.82 -263.27)"></path><path class="cls-1 OjTPHuAO_9" d="M376.49,281.69c-.6,8.27-5.75,12.08-13.81,12.08-9.64,0-15.23-5-15.23-14.83,0-4,1-7.94,3.89-10.82a12.73,12.73,0,0,1,9.27-3.64c4,0,6.57,1.37,8.67,4.69.08-1.45,0-2.87,0-4.33h6.81v13.33h-7l0-.81c-.2-3.81-2.67-6.4-6.52-6.4-5.11,0-7.17,3.4-7.17,8.14,0,5,1.82,8.43,7.29,8.43,3.93,0,6.52-1.75,6.72-5.84Z" transform="translate(-29.82 -263.27)"></path><path class="cls-1 OjTPHuAO_10" d="M433.22,271.12h-4.34v12.6c0,7.57-6.93,10.13-13.37,10.13-7,0-12.52-2.35-12.52-10.25V271.12h-4.33v-6.28h16.16v6.28h-4.33v11.67c0,3.6,2.55,5.06,5.83,5.06,3.73,0,5.67-1.58,5.67-5.39V271.12h-4.13v-6.28h15.36Z" transform="translate(-29.82 -263.27)"></path><path class="cls-1 OjTPHuAO_11" d="M475.11,271.12h-4.58v22.12h-4.78L453,278.82V287h4.54v6.28h-16V287h4.34V271.12h-4.34v-6.28h8.39l14,15.43v-9.15h-4.46v-6.28h15.72Z" transform="translate(-29.82 -263.27)"></path><path class="cls-1 OjTPHuAO_12" d="M499.22,293.24H483V287h4.62V271.12H483v-6.28h16.25v6.28H494.6V287h4.62Z" transform="translate(-29.82 -263.27)"></path><path class="cls-1 OjTPHuAO_13" d="M539.16,271.12h-2.87c-3.12,7.13-6.69,15-9.77,22.12h-6.23c-3-7.05-6.24-14.95-9.08-22.12h-4v-6.28h15.84v6.28H519c1.66,3.89,3.61,8.59,5.18,12.48,1.54-3.93,3.53-8.59,5.23-12.48H526v-6.28h13.12Z" transform="translate(-29.82 -263.27)"></path><path class="cls-1 OjTPHuAO_14" d="M578,293.24H547.19V287h4.58V271.12h-4.58v-6.28H578V277h-7.17v-.6c0-1.54,0-3.85,0-5.43H558.86v6.36h8.3v4.13h-8.3v5.75h11.91c0-1.58,0-4.13.12-5.71H578Z" transform="translate(-29.82 -263.27)"></path><path class="cls-1 OjTPHuAO_15" d="M620.44,286.8c0,4.53-2.72,6.88-7.17,6.88-5.35,0-7.58-2.71-7.25-8.3,0-.45.08-.89.08-1.34,0-2.27-1.46-2.71-3.36-2.71h-4.42V287h3.6v6.28H586.81V287h4.34V271.12h-4.34v-6.28h20.06c4.94,0,9.32,2,9.32,7.54,0,4.13-2.84,6.8-6.89,7a5.33,5.33,0,0,0-.93.09,5.53,5.53,0,0,0,.81.16c3.6.48,5,2.23,5,5.87,0,.69-.08,1.42-.08,2.11,0,.85.36,1.38,1.26,1.38,1.82,0,2-2.8,2-4.1h2.92A14.68,14.68,0,0,1,620.44,286.8Zm-11.75-12.72a3.16,3.16,0,0,0-3.32-3.16h-7v6.4h6.8A3.28,3.28,0,0,0,608.69,274.08Z" transform="translate(-29.82 -263.27)"></path><path class="cls-1 OjTPHuAO_16" d="M644.75,293.24H628.5V287h4.62V271.12H628.5v-6.28h16.25v6.28h-4.62V287h4.62Z" transform="translate(-29.82 -263.27)"></path><path class="cls-1 OjTPHuAO_17" d="M680,284.2c0,6.85-4.42,9.57-10.29,9.57-3.57,0-6.85-.65-9.6-3.53v3h-6.77v-9.93h5c2.18,3.33,6.84,4.95,10.65,4.95,2.07,0,4.37-.41,4.37-3,0-3.12-3.72-3.16-7.93-3.41-8.72-.52-12-3.64-12-9.31,0-6.61,5.39-8.27,11-8.27a10.29,10.29,0,0,1,8,3.32v-2.75h6.16v8.59h-5.14c-2.35-2.68-5.59-3.53-9.08-3.53-1.62,0-4.33.25-4.33,2.43,0,2.8,3.24,3,7.09,3.08C675.74,275.7,680,278.13,680,284.2Z" transform="translate(-29.82 -263.27)"></path><path class="cls-1 OjTPHuAO_18" d="M720.47,277h-6.8v-6.44h-6.36V287h4.33v6.28H695.92V287h4.34V270.51h-6.32V277h-6.81V264.84h33.34Z" transform="translate(-29.82 -263.27)"></path><path class="cls-1 OjTPHuAO_19" d="M758.56,271.12h-3.08l-9.28,12.19V287H750v6.28H735.43V287h3.76v-3.44l-9-12.4h-3v-6.28h15v6.28h-3.93l5.23,7.29,5.67-7.29h-4v-6.28h13.41Z" transform="translate(-29.82 -263.27)"></path><path class="cls-2 OjTPHuAO_20" d="M162.61,347.24H147.17V341h4.18V326c-2.72,6.81-5.59,14.38-8.27,21.23h-4.54c-2.51-6.85-5.1-14.42-7.65-21.31v15h3.64v6.28H120V341h4.34V325.12H120v-6.28h15.6c1.86,4.94,4.13,11.51,5.95,16.49,2-4.94,5-11.71,7-16.49h14.1v6.28H158.4V341h4.21Z" transform="translate(-29.82 -263.27)"></path><path class="cls-2 OjTPHuAO_21" d="M203.09,347.24H172.26V341h4.57V325.12h-4.57v-6.28h30.83V331h-7.17v-.6c0-1.54,0-3.85,0-5.43h-12v6.36h8.31v4.13h-8.31v5.75h11.91c0-1.58,0-4.13.13-5.71h7.13Z" transform="translate(-29.82 -263.27)"></path><path class="cls-2 OjTPHuAO_22" d="M245.14,325.12h-4.58v22.12h-4.78L223,332.82V341h4.54v6.28h-16V341h4.33V325.12h-4.33v-6.28h8.38l14,15.44v-9.16h-4.46v-6.28h15.72Z" transform="translate(-29.82 -263.27)"></path><path class="cls-2 OjTPHuAO_23" d="M261.8,324.07c0,5-3.29,7.61-8.15,7.61h-.28c0-.73.12-1.5.12-2.23,2.76-.4,4-.56,4.38-3.72H254v-7.25h7.82Z" transform="translate(-29.82 -263.27)"></path><path class="cls-2 OjTPHuAO_24" d="M297.65,338.21c0,6.84-4.42,9.56-10.29,9.56-3.56,0-6.85-.65-9.6-3.53v3H271v-9.93h5c2.18,3.33,6.84,4.95,10.65,4.95,2.07,0,4.38-.41,4.38-3,0-3.12-3.73-3.16-7.94-3.4-8.71-.53-12-3.65-12-9.32,0-6.61,5.39-8.27,11-8.27a10.33,10.33,0,0,1,8,3.32v-2.75h6.15v8.59h-5.14c-2.35-2.68-5.59-3.53-9.08-3.53-1.62,0-4.33.25-4.33,2.43,0,2.8,3.24,3,7.09,3.08C293.36,329.7,297.65,332.13,297.65,338.21Z" transform="translate(-29.82 -263.27)"></path><path class="cls-2 OjTPHuAO_25" d="M336.71,347.24H320.46V341h4.62V325.12h-4.62v-6.28h16.25v6.28h-4.62V341h4.62Z" transform="translate(-29.82 -263.27)"></path><path class="cls-2 OjTPHuAO_26" d="M375.12,335.69c-.61,8.27-5.76,12.08-13.82,12.08-9.64,0-15.23-5-15.23-14.83,0-4,1-7.94,3.89-10.82a12.73,12.73,0,0,1,9.28-3.64c4,0,6.56,1.37,8.67,4.69.08-1.45,0-2.87,0-4.33h6.8v13.33h-7l0-.81c-.2-3.81-2.67-6.4-6.52-6.4-5.1,0-7.17,3.4-7.17,8.14,0,5,1.82,8.43,7.29,8.43,3.93,0,6.53-1.74,6.73-5.84Z" transform="translate(-29.82 -263.27)"></path><path class="cls-2 OjTPHuAO_27" d="M414.38,347.24H383.55V341h4.57V325.12h-4.57v-6.28h30.83V331h-7.17v-.6c0-1.54,0-3.85,0-5.43h-12v6.36h8.31v4.13h-8.31v5.75h11.91c.05-1.58.05-4.13.13-5.71h7.13Z" transform="translate(-29.82 -263.27)"></path><path class="cls-2 OjTPHuAO_28" d="M472.72,347.24H456.88V341h4.17v-6H449.3v6h4.18v6.28H437.63V341h4.58V325.12h-4.58v-6.28h15.85v6.28H449.3v6h11.75v-6h-4.17v-6.28h15.84v6.28h-4.58V341h4.58Z" transform="translate(-29.82 -263.27)"></path><path class="cls-2 OjTPHuAO_29" d="M510.84,333.18a14.14,14.14,0,0,1-14.54,14.59c-8.42,0-14.54-6.08-14.54-14.43,0-8.71,5.51-15.07,14.54-15.07C505,318.27,510.84,324.35,510.84,333.18ZM503,333c0-4.58-2.07-8.14-6.77-8.14-4.42,0-6.52,3.6-6.52,8.14,0,4.82,2.06,8.14,6.68,8.14S503,337.68,503,333Z" transform="translate(-29.82 -263.27)"></path><path class="cls-2 OjTPHuAO_30" d="M548.69,335.69c-.61,8.27-5.76,12.08-13.82,12.08-9.64,0-15.23-5-15.23-14.83,0-4,1-7.94,3.89-10.82a12.73,12.73,0,0,1,9.28-3.64c4,0,6.56,1.37,8.67,4.69.08-1.45,0-2.87,0-4.33h6.8v13.33h-7l0-.81c-.2-3.81-2.67-6.4-6.52-6.4-5.1,0-7.17,3.4-7.17,8.14,0,5,1.82,8.43,7.29,8.43,3.93,0,6.52-1.74,6.73-5.84Z" transform="translate(-29.82 -263.27)"></path><path class="cls-2 OjTPHuAO_31" d="M591.27,347.24h-16V341H579l-6.56-6.6-3.65,2.39V341h3.41v6.28H557.12V341h4.57V325.12H557v-6.28h15.52v6.28h-3.69v7.25l10.62-7.25h-3.57v-6.28h14.83v6.28h-4.58l-8.22,5.67,10,10.17h3.36Z" transform="translate(-29.82 -263.27)"></path><path class="cls-2 OjTPHuAO_32" d="M630.77,347.24H599.94V341h4.58V325.12h-4.58v-6.28h30.83V331H623.6v-.6c0-1.54,0-3.85,0-5.43H611.61v6.36h8.3v4.13h-8.3v5.75h11.91c0-1.58,0-4.13.12-5.71h7.13Z" transform="translate(-29.82 -263.27)"></path><path class="cls-2 OjTPHuAO_33" d="M669.63,325.12h-3.08l-9.28,12.19V341H661v6.28H646.49V341h3.77v-3.44l-9-12.4h-3v-6.28h15v6.28h-3.93l5.23,7.29,5.67-7.29h-4v-6.28h13.41Z" transform="translate(-29.82 -263.27)"></path><text x="-29.82" y="-263.27"></text><style data-made-with="vivus-instant">.OjTPHuAO_0{stroke-dasharray:179 181;stroke-dashoffset:180;animation:OjTPHuAO_draw 2000ms linear 0ms forwards;}.OjTPHuAO_1{stroke-dasharray:178 180;stroke-dashoffset:179;animation:OjTPHuAO_draw 2000ms linear 30ms forwards;}.OjTPHuAO_2{stroke-dasharray:108 110;stroke-dashoffset:109;animation:OjTPHuAO_draw 2000ms linear 60ms forwards;}.OjTPHuAO_3{stroke-dasharray:195 197;stroke-dashoffset:196;animation:OjTPHuAO_draw 2000ms linear 90ms forwards;}.OjTPHuAO_4{stroke-dasharray:195 197;stroke-dashoffset:196;animation:OjTPHuAO_draw 2000ms linear 121ms forwards;}.OjTPHuAO_5{stroke-dasharray:108 110;stroke-dashoffset:109;animation:OjTPHuAO_draw 2000ms linear 151ms forwards;}.OjTPHuAO_6{stroke-dasharray:160 162;stroke-dashoffset:161;animation:OjTPHuAO_draw 2000ms linear 181ms forwards;}.OjTPHuAO_7{stroke-dasharray:108 110;stroke-dashoffset:109;animation:OjTPHuAO_draw 2000ms linear 212ms forwards;}.OjTPHuAO_8{stroke-dasharray:164 166;stroke-dashoffset:165;animation:OjTPHuAO_draw 2000ms linear 242ms forwards;}.OjTPHuAO_9{stroke-dasharray:163 165;stroke-dashoffset:164;animation:OjTPHuAO_draw 2000ms linear 272ms forwards;}.OjTPHuAO_10{stroke-dasharray:178 180;stroke-dashoffset:179;animation:OjTPHuAO_draw 2000ms linear 303ms forwards;}.OjTPHuAO_11{stroke-dasharray:194 196;stroke-dashoffset:195;animation:OjTPHuAO_draw 2000ms linear 333ms forwards;}.OjTPHuAO_12{stroke-dasharray:108 110;stroke-dashoffset:109;animation:OjTPHuAO_draw 2000ms linear 363ms forwards;}.OjTPHuAO_13{stroke-dasharray:150 152;stroke-dashoffset:151;animation:OjTPHuAO_draw 2000ms linear 393ms forwards;}.OjTPHuAO_14{stroke-dasharray:206 208;stroke-dashoffset:207;animation:OjTPHuAO_draw 2000ms linear 424ms forwards;}.OjTPHuAO_15{stroke-dasharray:203 205;stroke-dashoffset:204;animation:OjTPHuAO_draw 2000ms linear 454ms forwards;}.OjTPHuAO_16{stroke-dasharray:108 110;stroke-dashoffset:109;animation:OjTPHuAO_draw 2000ms linear 484ms forwards;}.OjTPHuAO_17{stroke-dasharray:186 188;stroke-dashoffset:187;animation:OjTPHuAO_draw 2000ms linear 515ms forwards;}.OjTPHuAO_18{stroke-dasharray:167 169;stroke-dashoffset:168;animation:OjTPHuAO_draw 2000ms linear 545ms forwards;}.OjTPHuAO_19{stroke-dasharray:159 161;stroke-dashoffset:160;animation:OjTPHuAO_draw 2000ms linear 575ms forwards;}.OjTPHuAO_20{stroke-dasharray:270 272;stroke-dashoffset:271;animation:OjTPHuAO_draw 2000ms linear 606ms forwards;}.OjTPHuAO_21{stroke-dasharray:206 208;stroke-dashoffset:207;animation:OjTPHuAO_draw 2000ms linear 636ms forwards;}.OjTPHuAO_22{stroke-dasharray:194 196;stroke-dashoffset:195;animation:OjTPHuAO_draw 2000ms linear 666ms forwards;}.OjTPHuAO_23{stroke-dasharray:47 49;stroke-dashoffset:48;animation:OjTPHuAO_draw 2000ms linear 696ms forwards;}.OjTPHuAO_24{stroke-dasharray:186 188;stroke-dashoffset:187;animation:OjTPHuAO_draw 2000ms linear 727ms forwards;}.OjTPHuAO_25{stroke-dasharray:108 110;stroke-dashoffset:109;animation:OjTPHuAO_draw 2000ms linear 757ms forwards;}.OjTPHuAO_26{stroke-dasharray:163 165;stroke-dashoffset:164;animation:OjTPHuAO_draw 2000ms linear 787ms forwards;}.OjTPHuAO_27{stroke-dasharray:206 208;stroke-dashoffset:207;animation:OjTPHuAO_draw 2000ms linear 818ms forwards;}.OjTPHuAO_28{stroke-dasharray:228 230;stroke-dashoffset:229;animation:OjTPHuAO_draw 2000ms linear 848ms forwards;}.OjTPHuAO_29{stroke-dasharray:141 143;stroke-dashoffset:142;animation:OjTPHuAO_draw 2000ms linear 878ms forwards;}.OjTPHuAO_30{stroke-dasharray:163 165;stroke-dashoffset:164;animation:OjTPHuAO_draw 2000ms linear 909ms forwards;}.OjTPHuAO_31{stroke-dasharray:222 224;stroke-dashoffset:223;animation:OjTPHuAO_draw 2000ms linear 939ms forwards;}.OjTPHuAO_32{stroke-dasharray:206 208;stroke-dashoffset:207;animation:OjTPHuAO_draw 2000ms linear 969ms forwards;}.OjTPHuAO_33{stroke-dasharray:159 161;stroke-dashoffset:160;animation:OjTPHuAO_draw 2000ms linear 1000ms forwards;}@keyframes OjTPHuAO_draw{100%{stroke-dashoffset:0;}}@keyframes OjTPHuAO_fade{0%{stroke-opacity:1;}94.44444444444444%{stroke-opacity:1;}100%{stroke-opacity:0;}}</style></svg>